#!OML:ASF H:\Terrain\Patient Classification 1\Takeo\Monday\TakeoMonday.ASF
:FULLY-SPECIFIED
:DEGREES
1275
root 10.7769 16.4909 -0.906015 5.15701 -23.2912 -0.936738
lowerback 26.528 2.98588 0.0645218
upperback 10.7838 3.42872 -2.50404
thorax -2.51305 1.65652 -3.70508
lowerneck -14.4987 1.89781 -1.93253
upperneck -9.66606 2.79328 0.651438
head -0.692998 1.45381 0.616437
rclavicle -4.57205e-015 1.66979e-014
rhumerus -6.54004 34.9669 -82.3035
rradius 90.4075
rwrist 3.30067
rhand -35.7621 44.2187
rfingers 7.12502
rthumb -8.8802 14.4256
lclavicle -4.57205e-015 1.66979e-014
lhumerus -23.7877 -8.34895 91.2696
lradius 106.103
lwrist 19.822
lhand -27.87 2.44842
lfingers 7.12502
lthumb -1.2604 32.4244
rfemur -25.2094 -9.74307 20.831
rtibia 54.7448
rfoot -30.0042 -22.4673
rtoes -11.6588
lfemur -40.9908 12.7566 -22.0969
ltibia 54.892
lfoot -16.3933 12.7623
ltoes -5.41409
1276
root 10.7898 16.4773 -0.921238 4.93344 -24.5586 -1.34372
lowerback 27.0538 2.8978 0.107214
upperback 10.4321 3.32567 -2.1395
thorax -3.18234 1.58063 -3.34436
lowerneck -15.0729 2.35619 -2.10361
upperneck -8.28696 3.42704 0.285697
head -0.170835 1.76729 0.577032
rclavicle 1.0138e-014 -3.26007e-014
rhumerus -9.01428 35.5151 -83.2414
rradius 91.2105
rwrist 2.73783
rhand -35.6352 44.5919
rfingers 7.12502
rthumb -8.75781 14.7936
lclavicle 1.0138e-014 -3.26007e-014
lhumerus -24.2556 -7.86162 91.3855
lradius 106.073
lwrist 19.333
lhand -27.676 2.5092
lfingers 7.12502
lthumb -1.073 32.4862
rfemur -25.204 -8.81752 21.1205
rtibia 55.0661
rfoot -29.8194 -22.0021
rtoes -11.926
lfemur -40.644 13.6291 -21.5339
ltibia 55.1742
lfoot -16.7339 13.0635
ltoes -4.6558
1277
root 10.8029 16.4587 -0.92697 4.91395 -25.9018 -1.63401
lowerback 25.9971 2.85628 0.85307
upperback 11.0778 3.44746 -2.18865
thorax -1.90747 1.68104 -3.77407
lowerneck -16.1087 2.60728 -1.75538
upperneck -7.86905 3.70789 -0.401307
head 0.14105 1.88491 0.340567
rclavicle 5.96354e-016 -3.35946e-014
rhumerus -9.8613 34.8584 -83.4487
rradius 92.0713
rwrist 2.5504
rhand -35.5844 44.5496
rfingers 7.12502
rthumb -8.70874 14.7493
lclavicle 5.96354e-016 -3.35946e-014
lhumerus -22.9168 -8.51874 90.9686
lradius 105.776
lwrist 19.2777
lhand -27.9306 2.55982
lfingers 7.12502
lthumb -1.31892 32.5355
rfemur -25.4138 -7.93935 21.2862
rtibia 55.3757
rfoot -29.6404 -21.4194
rtoes -11.68
lfemur -40.5382 14.6537 -21.2231
ltibia 55.5305
lfoot -17.1372 13.2813
ltoes -4.03554
1278
root 10.8113 16.4399 -0.926994 4.53644 -27.0385 -1.16206
lowerback 25.4459 2.79464 0.74663
upperback 11.2056 3.33996 -2.25964
thorax -1.51378 1.63078 -3.72783
lowerneck -16.3223 2.9476 -1.33921
upperneck -7.3141 4.0835 -1.29692
head 0.379399 2.04177 0.0221692
rclavicle -1.39149e-015 3.00165e-014
rhumerus -11.7194 34.6342 -84.1963
rradius 92.8666
rwrist 2.6514
rhand -35.7537 44.2064
rfingers 7.12502
rthumb -8.8721 14.4129
lclavicle -1.39149e-015 3.00165e-014
lhumerus -22.7396 -8.83172 90.8329
lradius 105.805
lwrist 19.5115
lhand -28.2692 1.47196
lfingers 7.12502
lthumb -1.64593 31.4454
rfemur -25.5605 -7.50975 20.6687
rtibia 55.6737
rfoot -29.2774 -21.109
rtoes -11.4471
lfemur -40.3405 15.5077 -21.7189
ltibia 55.9091
lfoot -17.5319 13.653
ltoes -4.75092
1279
root 10.8167 16.4177 -0.931575 4.00356 -28.041 -0.858101
lowerback 25.4782 2.65714 0.673745
upperback 11.1516 3.14301 -2.19434
thorax -1.61194 1.52328 -3.56872
lowerneck -16.3572 3.32712 -1.10174
upperneck -6.69936 4.54958 -2.05441
head 0.61046 2.2482 -0.220611
rclavicle 2.00773e-014 -3.97569e-015
rhumerus -13.6913 34.5171 -85.002
rradius 93.4275
rwrist 2.88785
rhand -35.9417 44.3395
rfingers 7.12502
rthumb -9.05356 14.5538
lclavicle 2.00773e-014 -3.97569e-015
lhumerus -22.9376 -8.91462 90.8332
lradius 105.8
lwrist 19.6161
lhand -28.6823 0.764511
lfingers 7.12502
lthumb -2.04488 30.7345
rfemur -25.4152 -7.16757 20.2279
rtibia 55.9554
rfoot -29.067 -20.7571
rtoes -11.3492
lfemur -39.9782 16.196 -21.8857
ltibia 56.3212
lfoot -17.8962 14.0543
ltoes -4.76189
1280
root 10.8285 16.3908 -0.935647 3.74448 -29.2556 -1.23076
lowerback 25.56 2.4862 1.26348
upperback 11.1354 3.0506 -2.06957
thorax -1.64835 1.48786 -3.75019
lowerneck -16.1529 3.768 -1.08514
upperneck -6.37267 5.13429 -2.54316
head 0.700839 2.52828 -0.344308
rclavicle 5.4467e-014 -2.44505e-014
rhumerus -15.5171 34.1449 -85.7941
rradius 93.8388
rwrist 3.45279
rhand -36.0958 45.2765
rfingers 7.12502
rthumb -9.20227 15.4973
lclavicle 5.4467e-014 -2.44505e-014
lhumerus -22.9459 -8.90904 90.7214
lradius 105.71
lwrist 19.6521
lhand -28.7695 0.973983
lfingers 7.12502
lthumb -2.12909 30.9431
rfemur -25.1933 -6.5348 20.4501
rtibia 56.2213
rfoot -29.1163 -20.2303
rtoes -11.2084
lfemur -39.6354 17.0494 -21.2872
ltibia 56.7681
lfoot -18.2402 14.1751
ltoes -3.24666
1281
root 10.8383 16.3628 -0.942878 3.3707 -30.4629 -1.14114
lowerback 25.5424 2.38546 1.52447
upperback 11.1144 2.96896 -2.09722
thorax -1.65199 1.45241 -3.90799
lowerneck -15.9371 4.11147 -1.23734
upperneck -6.01118 5.62232 -2.74551
head 0.788426 2.76832 -0.355378
rclavicle -1.37161e-014 -3.97569e-016
rhumerus -17.3069 33.5036 -86.6148
rradius 94.2031
rwrist 3.9495
rhand -36.2886 46.0173
rfingers 7.12502
rthumb -9.38831 16.2464
lclavicle -1.37161e-014 -3.97569e-016
lhumerus -22.8934 -9.04809 90.4625
lradius 105.563
lwrist 19.8873
lhand -28.7065 0.895233
lfingers 7.12502
lthumb -2.06825 30.865
rfemur -25.1398 -6.02973 20.272
rtibia 56.526
rfoot -29.2233 -19.597
rtoes -11.1505
lfemur -39.425 17.9092 -21.1851
ltibia 57.2676
lfoot -18.5314 14.244
ltoes -1.41501
1282
root 10.8445 16.3368 -0.951518 2.59853 -31.3904 -0.552475
lowerback 25.7668 2.28262 1.35894
upperback 11.1035 2.78788 -2.13887
thorax -1.79159 1.35168 -3.82348
lowerneck -15.9205 4.53067 -0.702184
upperneck -5.45731 6.10765 -3.69321
head 1.02546 2.97127 -0.70608
rclavicle 2.26615e-014 1.8487e-014
rhumerus -19.1329 32.9048 -87.2688
rradius 94.673
rwrist 4.33153
rhand -36.3405 46.0754
rfingers 7.12502
rthumb -9.43836 16.3068
lclavicle 2.26615e-014 1.8487e-014
lhumerus -22.8548 -9.31007 90.3094
lradius 105.316
lwrist 20.2583
lhand -29.1655 0.66352
lfingers 7.12502
lthumb -2.51155 30.6285
rfemur -24.9522 -5.79206 19.6309
rtibia 56.89
rfoot -29.3214 -19.0314
rtoes -11.4686
lfemur -39.0394 18.4294 -21.5204
ltibia 57.768
lfoot -18.5658 14.6937
ltoes -1.69276
1283
root 10.8502 16.309 -0.959517 2.15516 -32.2581 -0.50731
lowerback 25.9751 2.0914 1.47119
upperback 11.0548 2.57132 -1.93121
thorax -1.96699 1.23466 -3.61572
lowerneck -15.8939 5.03663 -0.0175925
upperneck -4.85537 6.6997 -5.15896
head 1.32095 3.2088 -1.24308
rclavicle -3.08116e-015 -1.19271e-014
rhumerus -20.9499 32.716 -87.7113
rradius 95.2137
rwrist 4.63675
rhand -36.411 46.2105
rfingers 7.12502
rthumb -9.50635 16.4449
lclavicle -3.08116e-015 -1.19271e-014
lhumerus -22.9762 -9.10212 90.5505
lradius 105.473
lwrist 20.671
lhand -29.6913 0.570544
lfingers 7.12502
lthumb -3.01938 30.5289
rfemur -24.8844 -5.47135 19.5242
rtibia 57.2902
rfoot -29.2837 -18.7747
rtoes -12.1212
lfemur -38.7179 18.9352 -21.3471
ltibia 58.2423
lfoot -18.7768 15.1229
ltoes -3.00907
1284
root 10.8498 16.2827 -0.969254 1.63194 -33.3002 -0.395872
lowerback 26.2617 2.02311 1.43329
upperback 10.9923 2.47614 -1.71369
thorax -2.19275 1.17102 -3.34553
lowerneck -15.9161 5.42769 0.0881219
upperneck -4.16063 7.25096 -6.05725
head 1.62056 3.44239 -1.50537
rclavicle -2.11706e-014 7.55382e-015
rhumerus -22.8546 32.4298 -88.2102
rradius 95.929
rwrist 4.76055
rhand -36.6494 46.3221
rfingers 7.12502
rthumb -9.7364 16.5671
lclavicle -2.11706e-014 7.55382e-015
lhumerus -23.3235 -8.67722 91.0114
lradius 105.883
lwrist 20.863
lhand -29.8913 0.523362
lfingers 7.12502
lthumb -3.21252 30.4789
rfemur -24.8076 -4.99009 19.3832
rtibia 57.6834
rfoot -29.312 -18.5124
rtoes -12.222
lfemur -38.2862 19.7165 -21.2041
ltibia 58.7109
lfoot -19.2724 15.2401
ltoes -2.61192
1285
root 10.847 16.2649 -0.972597 0.881082 -34.3232 -0.107012
lowerback 26.5704 1.99221 1.33716
upperback 10.9869 2.40949 -1.56901
thorax -2.36115 1.12303 -3.12742
lowerneck -15.5754 5.88389 0.36108
upperneck -3.85902 7.84543 -6.95679
head 1.7432 3.70931 -1.80832
rclavicle -8.40859e-014 3.77691e-014
rhumerus -24.9597 31.8741 -88.7589
rradius 96.9085
rwrist 4.92984
rhand -36.7103 46.0152
rfingers 7.12502
rthumb -9.79518 16.263
lclavicle -8.40859e-014 3.77691e-014
lhumerus -23.6004 -8.45602 91.2713
lradius 106
lwrist 20.6184
lhand -29.9389 0.626696
lfingers 7.12502
lthumb -3.25849 30.5815
rfemur -24.4996 -4.5662 19.0573
rtibia 58.0627
rfoot -29.5589 -18.046
rtoes -12.0753
lfemur -37.6452 20.4725 -21.134
ltibia 59.1407
lfoot -19.4654 15.4897
ltoes -3.01424
